<svg width="633" height="136" viewBox="0 0 633 136" fill="none" xmlns="http://www.w3.org/2000/svg">
<path d="M49.3386 42.2991C76.5881 42.2991 98.6772 60.5526 98.6772 83.0698C98.6772 99.279 87.2301 113.279 70.6512 119.85C71.1497 122.335 74.3584 130.167 79.3007 135.534C79.3007 135.534 62.0611 129.974 54.083 122.826C51.5495 123.158 49.6605 123.315 47.0151 123.315C19.7659 123.315 0 105.586 0 83.0698C0 60.5526 22.0899 42.2991 49.3386 42.2991Z" fill="#8DCC5E"/>
<path d="M79.3008 135.534C74.3584 130.167 71.1497 122.335 70.6512 119.85C87.2302 113.279 98.6772 99.279 98.6772 83.0698C98.6772 60.553 76.5882 42.2991 49.3386 42.2991C49.3386 42.2991 70.7373 43.1492 83.5982 57.0474C96.4591 70.9456 97.7651 85.4167 89.7343 99.629C81.7028 113.841 65.7929 117.78 65.7929 117.78C65.7929 117.78 67.8332 129.498 79.3008 135.534Z" fill="#8DCC5E"/>
<path d="M48.7077 89.6304C52.5964 89.6304 55.7487 86.478 55.7487 82.5894C55.7487 78.7007 52.5964 75.5484 48.7077 75.5484C44.8191 75.5484 41.6667 78.7007 41.6667 82.5894C41.6667 86.478 44.8191 89.6304 48.7077 89.6304Z" fill="#253744"/>
<path d="M48.2285 89.1512C51.8525 89.1512 54.7904 86.2134 54.7904 82.5894C54.7904 78.9654 51.8525 76.0275 48.2285 76.0275C44.6045 76.0275 41.6667 78.9654 41.6667 82.5894C41.6667 86.2134 44.6045 89.1512 48.2285 89.1512Z" fill="#E2E5E7"/>
<path d="M28.7901 89.6304C32.6787 89.6304 35.8311 86.478 35.8311 82.5894C35.8311 78.7007 32.6787 75.5484 28.7901 75.5484C24.9015 75.5484 21.7491 78.7007 21.7491 82.5894C21.7491 86.478 24.9015 89.6304 28.7901 89.6304Z" fill="#253744"/>
<path d="M28.3109 89.1512C31.9349 89.1512 34.8727 86.2134 34.8727 82.5894C34.8727 78.9654 31.9349 76.0275 28.3109 76.0275C24.6869 76.0275 21.7491 78.9654 21.7491 82.5894C21.7491 86.2134 24.6869 89.1512 28.3109 89.1512Z" fill="#E2E5E7"/>
<path opacity="0.52" d="M98.6772 83.0694C98.6772 67.413 87.9982 53.8182 72.3306 46.9868L25.7681 119.271C32.4325 121.732 35.7929 122.819 46.0068 123.277C48.6494 123.396 51.5495 123.158 54.0831 122.826C62.0611 129.974 79.3008 135.534 79.3008 135.534C74.3584 130.167 71.1497 122.335 70.6512 119.85C87.2302 113.278 98.6772 99.2786 98.6772 83.0694Z" fill="#455F32"/>
<path d="M72.3306 46.9868C72.3306 46.9868 67.4377 61.1058 72.1322 74.4114C76.8268 87.7169 91.0919 100.788 93.4331 101.381L95.8162 96.7845L73.3268 47.4354L72.3306 46.9868Z" fill="#486532"/>
<path d="M139.067 0.466202C102.099 0.466202 72.1322 25.2293 72.1322 55.7764C72.1322 77.7661 87.6623 96.7579 110.153 105.672C109.477 109.045 107.346 115.782 100.641 123.062C100.641 123.062 117.695 120.096 128.518 110.401C131.955 110.85 135.477 111.087 139.067 111.087C176.033 111.087 206 86.3227 206 55.7764C206 25.2293 176.033 0.466202 139.067 0.466202Z" fill="#EB8923"/>
<path d="M100.641 123.062C107.346 115.782 109.477 109.045 110.153 105.672C87.6623 96.7579 72.1322 77.7661 72.1322 55.7764C72.1322 25.2293 102.099 0.466202 139.067 0.466202C139.067 0.466202 110.037 1.62013 92.5886 20.4744C75.1413 39.3286 73.3686 58.9606 84.2645 78.2409C95.1599 97.522 116.744 102.866 116.744 102.866C116.744 102.866 116.198 114.874 100.641 123.062Z" fill="#D27228"/>
<path d="M112.902 64.6766C118.177 64.6766 122.454 60.4 122.454 55.1246C122.454 49.8491 118.177 45.5726 112.902 45.5726C107.626 45.5726 103.35 49.8491 103.35 55.1246C103.35 60.4 107.626 64.6766 112.902 64.6766Z" fill="#D27228"/>
<path d="M113.551 64.0269C118.468 64.0269 122.454 60.0412 122.454 55.1246C122.454 50.208 118.468 46.2223 113.551 46.2223C108.635 46.2223 104.649 50.208 104.649 55.1246C104.649 60.0412 108.635 64.0269 113.551 64.0269Z" fill="#E2E5E7"/>
<path d="M139.922 64.6766C145.198 64.6766 149.474 60.4 149.474 55.1246C149.474 49.8491 145.198 45.5726 139.922 45.5726C134.647 45.5726 130.37 49.8491 130.37 55.1246C130.37 60.4 134.647 64.6766 139.922 64.6766Z" fill="#D27228"/>
<path d="M140.572 64.0269C145.489 64.0269 149.474 60.0412 149.474 55.1246C149.474 50.208 145.489 46.2223 140.572 46.2223C135.655 46.2223 131.67 50.208 131.67 55.1246C131.67 60.0412 135.655 64.0269 140.572 64.0269Z" fill="#E2E5E7"/>
<path d="M166.943 64.6766C172.218 64.6766 176.495 60.4 176.495 55.1246C176.495 49.8491 172.218 45.5726 166.943 45.5726C161.667 45.5726 157.391 49.8491 157.391 55.1246C157.391 60.4 161.667 64.6766 166.943 64.6766Z" fill="#D27228"/>
<path d="M167.593 64.0265C172.509 64.0265 176.495 60.041 176.495 55.1246C176.495 50.2082 172.509 46.2227 167.593 46.2227C162.676 46.2227 158.691 50.2082 158.691 55.1246C158.691 60.041 162.676 64.0265 167.593 64.0265Z" fill="#E2E5E7"/>
<path d="M292.41 94.3965C289.415 96.972 286.061 98.9486 282.348 100.326C278.634 101.704 274.786 102.393 270.803 102.393C267.748 102.393 264.798 101.988 261.953 101.18C259.138 100.401 256.488 99.293 254.002 97.8555C251.546 96.388 249.3 94.6361 247.264 92.5996C245.227 90.5632 243.475 88.3171 242.008 85.8613C240.57 83.3757 239.447 80.7253 238.639 77.9102C237.86 75.0651 237.471 72.1152 237.471 69.0605C237.471 66.0059 237.86 63.056 238.639 60.2109C239.447 57.3659 240.57 54.7155 242.008 52.2598C243.475 49.7741 245.227 47.513 247.264 45.4766C249.3 43.4401 251.546 41.7031 254.002 40.2656C256.488 38.7982 259.138 37.6751 261.953 36.8965C264.798 36.0879 267.748 35.6836 270.803 35.6836C274.786 35.6836 278.634 36.3724 282.348 37.75C286.061 39.0977 289.415 41.0742 292.41 43.6797L285.582 54.9102C283.695 52.8737 281.464 51.3164 278.889 50.2383C276.313 49.1302 273.618 48.5762 270.803 48.5762C267.958 48.5762 265.292 49.1152 262.807 50.1934C260.321 51.2715 258.15 52.7389 256.293 54.5957C254.436 56.4225 252.969 58.5938 251.891 61.1094C250.812 63.5951 250.273 66.2454 250.273 69.0605C250.273 71.8757 250.812 74.526 251.891 77.0117C252.969 79.4674 254.436 81.6237 256.293 83.4805C258.15 85.3372 260.321 86.8047 262.807 87.8828C265.292 88.9609 267.958 89.5 270.803 89.5C273.618 89.5 276.313 88.9609 278.889 87.8828C281.464 86.7747 283.695 85.2025 285.582 83.166L292.41 94.3965ZM310.873 101H298.609V33.752H310.873V55C312.34 53.8919 313.853 53.1133 315.41 52.6641C316.967 52.1849 318.555 51.9453 320.172 51.9453C323.137 51.9453 325.922 52.5143 328.527 53.6523C331.133 54.7604 333.394 56.3027 335.311 58.2793C337.257 60.2259 338.785 62.5169 339.893 65.1523C341.031 67.7578 341.6 70.543 341.6 73.5078V101H329.246V73.5078H329.336C329.336 72.25 329.096 71.0671 328.617 69.959C328.138 68.821 327.479 67.8327 326.641 66.9941C325.802 66.1556 324.829 65.4967 323.721 65.0176C322.613 64.5384 321.43 64.2988 320.172 64.2988C318.884 64.2988 317.671 64.5384 316.533 65.0176C315.395 65.4967 314.407 66.1556 313.568 66.9941C312.73 67.8327 312.071 68.821 311.592 69.959C311.113 71.0671 310.873 72.25 310.873 73.5078V101ZM396.943 101H393.979L389.217 94.3965C388.049 95.4447 386.806 96.4329 385.488 97.3613C384.201 98.2598 382.838 99.0534 381.4 99.7422C379.963 100.401 378.48 100.925 376.953 101.314C375.456 101.704 373.928 101.898 372.371 101.898C368.987 101.898 365.798 101.329 362.803 100.191C359.838 99.0534 357.232 97.4062 354.986 95.25C352.77 93.0638 351.018 90.3984 349.73 87.2539C348.443 84.1094 347.799 80.5306 347.799 76.5176C347.799 72.7741 348.443 69.3451 349.73 66.2305C351.018 63.0859 352.77 60.3906 354.986 58.1445C357.232 55.8984 359.838 54.1615 362.803 52.9336C365.798 51.6758 368.987 51.0469 372.371 51.0469C373.928 51.0469 375.471 51.2415 376.998 51.6309C378.525 52.0202 380.008 52.5592 381.445 53.248C382.883 53.9368 384.245 54.7454 385.533 55.6738C386.851 56.6022 388.079 57.6055 389.217 58.6836L393.979 52.9785H396.943V101ZM384.59 76.5176C384.59 74.8405 384.26 73.2233 383.602 71.666C382.973 70.0788 382.104 68.6862 380.996 67.4883C379.888 66.2604 378.585 65.2871 377.088 64.5684C375.62 63.8197 374.048 63.4453 372.371 63.4453C370.694 63.4453 369.107 63.7298 367.609 64.2988C366.142 64.8678 364.854 65.7064 363.746 66.8145C362.668 67.9225 361.814 69.3001 361.186 70.9473C360.557 72.5645 360.242 74.4212 360.242 76.5176C360.242 78.6139 360.557 80.4857 361.186 82.1328C361.814 83.75 362.668 85.1126 363.746 86.2207C364.854 87.3288 366.142 88.1673 367.609 88.7363C369.107 89.3053 370.694 89.5898 372.371 89.5898C374.048 89.5898 375.62 89.2305 377.088 88.5117C378.585 87.763 379.888 86.7897 380.996 85.5918C382.104 84.3639 382.973 82.9714 383.602 81.4141C384.26 79.8268 384.59 78.1947 384.59 76.5176ZM430.455 101C427.49 101 424.705 100.446 422.1 99.3379C419.494 98.1999 417.203 96.6576 415.227 94.7109C413.28 92.7344 411.738 90.4434 410.6 87.8379C409.492 85.2324 408.938 82.4473 408.938 79.4824V65.1973H402.963V52.9785H408.938V33.752H421.156V52.9785H439.754V65.1973H421.156V79.4824C421.156 80.7702 421.396 81.9831 421.875 83.1211C422.354 84.2292 423.013 85.2025 423.852 86.041C424.69 86.8796 425.678 87.5534 426.816 88.0625C427.954 88.5417 429.167 88.7812 430.455 88.7812H439.754V101H430.455ZM460.867 101H447.975V36.582H493.076V49.4746H460.867V62.3672H480.184V75.2598H460.867V101ZM539.346 101H536.381L531.619 94.3965C530.451 95.4447 529.208 96.4329 527.891 97.3613C526.603 98.2598 525.24 99.0534 523.803 99.7422C522.365 100.401 520.883 100.925 519.355 101.314C517.858 101.704 516.331 101.898 514.773 101.898C511.389 101.898 508.2 101.329 505.205 100.191C502.24 99.0534 499.635 97.4062 497.389 95.25C495.173 93.0638 493.421 90.3984 492.133 87.2539C490.845 84.1094 490.201 80.5306 490.201 76.5176C490.201 72.7741 490.845 69.3451 492.133 66.2305C493.421 63.0859 495.173 60.3906 497.389 58.1445C499.635 55.8984 502.24 54.1615 505.205 52.9336C508.2 51.6758 511.389 51.0469 514.773 51.0469C516.331 51.0469 517.873 51.2415 519.4 51.6309C520.928 52.0202 522.41 52.5592 523.848 53.248C525.285 53.9368 526.648 54.7454 527.936 55.6738C529.253 56.6022 530.481 57.6055 531.619 58.6836L536.381 52.9785H539.346V101ZM526.992 76.5176C526.992 74.8405 526.663 73.2233 526.004 71.666C525.375 70.0788 524.507 68.6862 523.398 67.4883C522.29 66.2604 520.988 65.2871 519.49 64.5684C518.023 63.8197 516.451 63.4453 514.773 63.4453C513.096 63.4453 511.509 63.7298 510.012 64.2988C508.544 64.8678 507.257 65.7064 506.148 66.8145C505.07 67.9225 504.217 69.3001 503.588 70.9473C502.959 72.5645 502.645 74.4212 502.645 76.5176C502.645 78.6139 502.959 80.4857 503.588 82.1328C504.217 83.75 505.07 85.1126 506.148 86.2207C507.257 87.3288 508.544 88.1673 510.012 88.7363C511.509 89.3053 513.096 89.5898 514.773 89.5898C516.451 89.5898 518.023 89.2305 519.49 88.5117C520.988 87.763 522.29 86.7897 523.398 85.5918C524.507 84.3639 525.375 82.9714 526.004 81.4141C526.663 79.8268 526.992 78.1947 526.992 76.5176ZM575.148 101H547.117V88.7812H575.148C575.987 88.7812 576.706 88.4818 577.305 87.8828C577.904 87.2839 578.203 86.5651 578.203 85.7266C578.203 84.8581 577.904 84.2891 577.305 84.0195C576.706 83.75 575.987 83.6152 575.148 83.6152H562.391C560.264 83.6152 558.273 83.2109 556.416 82.4023C554.559 81.5938 552.942 80.5007 551.564 79.123C550.187 77.7155 549.094 76.0833 548.285 74.2266C547.507 72.3698 547.117 70.3783 547.117 68.252C547.117 66.1257 547.507 64.1341 548.285 62.2773C549.094 60.4206 550.187 58.8034 551.564 57.4258C552.942 56.0482 554.559 54.9701 556.416 54.1914C558.273 53.3828 560.264 52.9785 562.391 52.9785H587.232V65.1973H562.391C561.552 65.1973 560.833 65.4967 560.234 66.0957C559.635 66.6947 559.336 67.4134 559.336 68.252C559.336 69.1204 559.635 69.8691 560.234 70.498C560.833 71.097 561.552 71.3965 562.391 71.3965H575.148C577.245 71.3965 579.221 71.7559 581.078 72.4746C582.935 73.1634 584.552 74.1367 585.93 75.3945C587.307 76.6523 588.4 78.1647 589.209 79.9316C590.018 81.6986 590.422 83.6302 590.422 85.7266C590.422 87.8529 590.018 89.8444 589.209 91.7012C588.4 93.528 587.307 95.1452 585.93 96.5527C584.552 97.9303 582.935 99.0234 581.078 99.832C579.221 100.611 577.245 101 575.148 101ZM621.104 101C618.139 101 615.354 100.446 612.748 99.3379C610.143 98.1999 607.852 96.6576 605.875 94.7109C603.928 92.7344 602.386 90.4434 601.248 87.8379C600.14 85.2324 599.586 82.4473 599.586 79.4824V65.1973H593.611V52.9785H599.586V33.752H611.805V52.9785H630.402V65.1973H611.805V79.4824C611.805 80.7702 612.044 81.9831 612.523 83.1211C613.003 84.2292 613.661 85.2025 614.5 86.041C615.339 86.8796 616.327 87.5534 617.465 88.0625C618.603 88.5417 619.816 88.7812 621.104 88.7812H630.402V101H621.104Z" fill="#E2E5E7"/>
</svg>
